<svg version="1.1" xmlns="http://www.w3.org/2000/svg" xmlns:xlink="http://www.w3.org/1999/xlink" width="700" height="700" viewBox="610,109.5,700,700"><g id="document" fill-opacity="0" fill="#000000" fill-rule="nonzero" stroke="#000000" stroke-width="0" stroke-linecap="butt" stroke-linejoin="miter" stroke-miterlimit="10" stroke-dasharray="" stroke-dashoffset="0" font-family="none" font-weight="none" font-size="none" text-anchor="none" style="mix-blend-mode: normal"><rect x="610" y="78.21429" transform="scale(1,1.4)" width="700" height="500" id="Shape 1 1" vector-effect="non-scaling-stroke"/></g><g fill="none" fill-rule="nonzero" stroke="none" stroke-width="1" stroke-linecap="none" stroke-linejoin="none" stroke-miterlimit="10" stroke-dasharray="" stroke-dashoffset="0" font-family="none" font-weight="none" font-size="none" text-anchor="none" style="mix-blend-mode: normal"><g id="stage"><g id="Layer2 1" fill="none" stroke="none" stroke-linecap="butt" stroke-linejoin="miter" font-family="sans-serif" font-weight="normal" font-size="12" text-anchor="start"/><g id="layer1 1" stroke-linecap="round" stroke-linejoin="round"><path d="M657.6982,365.84103" id="Path 1" fill="none" stroke="#000000"/><path d="M1164.85108,363.87417" id="Path 1" fill="none" stroke="#000000"/><path d="M852.34457,380.85869l27.01087,-0.68165l2.72108,39.36213l-26.88181,0.57766zM895.31107,516.16211l41.55017,-73.45492l-50.47783,-61.1611l42.87094,-0.57942l33.73028,36.91819l27.70669,-35.16908l39.64102,0.00632l-40.00938,58.83977l34.84023,37.13377c0,0 25.38161,12.53369 38.61529,0.57026c5.79959,-8.25727 -4.81069,-12.96386 -12.21808,-15.9753c-16.27324,-7.31859 -23.74225,-12.61562 -23.74225,-12.61562c0,0 -17.84636,-9.06844 -14.80031,-25.26332c6.96806,-19.18216 26.16417,-42.63011 26.16417,-42.63011l250.27853,1.87899c0,0 -53.3405,16.30088 -69.13297,28.09187c-21.29256,10.92696 -23.11572,24.70216 -24.62035,31.14991c0.67248,12.00212 7.96463,24.56566 33.14585,25.73101c10.3563,0.61854 16.08094,-0.72316 16.08094,-0.72316l47.09498,47.54597l-85.91187,-0.74245l-25.08309,-30.83935c0,0 -5.92375,-6.49453 -8.02567,0.1782c-0.04378,9.50114 3.0976,31.10305 3.0976,31.10305l-44.20524,0.65962l-8.11076,-109.46283c0,0 -33.61648,-0.52161 -44.66864,0.59441c-9.2668,0.68882 -10.29763,4.82017 -11.12778,9.06337c-0.92788,7.84682 3.93872,14.55712 21.54159,21.35329c23.25739,9.35748 29.16535,27.11957 29.49952,40.78332c-5.81503,26.45845 -16.90306,36.94576 -16.90306,36.94576l-110.3783,0.56573l-23.3596,-36.25373l-21.54416,35.7658zM1168.84667,424.36083c5.13581,-9.73492 12.52796,-14.33494 12.52796,-14.33494l0.72038,-4.39231l-19.8297,1.06798l2.65773,18.37424c0,0 2.03891,0.09692 3.92362,-0.71497zM842.71471,380.59144l6.04171,47.29651l33.03366,-0.72774l6.53562,89.59114l-63.90765,-0.25075l-2.72506,-29.30088l-19.83226,0.2101l-9.84545,20.72207l0.79913,8.08006l-52.98315,0.21903l65.19889,-135.87244zM814.69859,452.44292l11.63354,0.00185l-0.13437,-21.4148l-3.50227,-0.08549zM789.85157,380.57547l-63.23604,136.41849l-108.57137,-0.37445l40.7238,-59.63637c0,0 15.53674,5.99887 32.68,3.5016c17.14326,-2.49727 24.84037,-13.20377 26.12372,-15.35715c0.22905,-0.69196 6.30991,-11.15241 -1.90233,-24.01086c-10.3552,-12.1445 -24.07455,-16.7575 -26.18307,-17.7405c-25.96286,-10.05887 -62.49167,-23.89815 -62.49167,-23.89815z" id="CompoundPath 1" fill="#000000" stroke-opacity="0" stroke="#000000"/></g></g></g></svg>